<svg xmlns="http://www.w3.org/2000/svg" width="1440" height="900" viewBox="0 0 1440 900">
  <rect width="1440" height="900" fill="#ffffff"/>
  <rect width="1440" height="92" fill="#0f172a"/>
  <text x="54" y="58" fill="#ffffff" font-family="Segoe UI, Arial" font-size="36" font-weight="700">Walmart Sales Analytics Dashboard</text>
  <text x="54" y="146" fill="#0f172a" font-family="Segoe UI, Arial" font-size="30" font-weight="700">Real weekly sales dataset overview</text>
  <g font-family="Segoe UI, Arial">
    <rect x="54" y="170" width="270" height="120" rx="18" fill="#f7fafc" stroke="#d8e2ea" stroke-width="2"/>
    <text x="76" y="210" fill="#5b6770" font-size="18" font-weight="700">TOTAL SALES</text>
    <text x="76" y="252" fill="#0f172a" font-size="34" font-weight="700">$118.6M</text>
    <rect x="346" y="170" width="270" height="120" rx="18" fill="#f7fafc" stroke="#d8e2ea" stroke-width="2"/>
    <text x="368" y="210" fill="#5b6770" font-size="18" font-weight="700">STORES</text>
    <text x="368" y="252" fill="#0f172a" font-size="34" font-weight="700">1</text>
    <rect x="638" y="170" width="270" height="120" rx="18" fill="#f7fafc" stroke="#d8e2ea" stroke-width="2"/>
    <text x="660" y="210" fill="#5b6770" font-size="18" font-weight="700">WEEKS</text>
    <text x="660" y="252" fill="#0f172a" font-size="34" font-weight="700">78</text>
    <rect x="930" y="170" width="270" height="120" rx="18" fill="#f7fafc" stroke="#d8e2ea" stroke-width="2"/>
    <text x="952" y="210" fill="#5b6770" font-size="18" font-weight="700">AVG WEEKLY</text>
    <text x="952" y="252" fill="#0f172a" font-size="34" font-weight="700">$1.52M</text>
    <text x="54" y="384" fill="#0f172a" font-size="28" font-weight="700">Weekly sales trend</text>
    <polyline points="76,650 156,612 236,625 316,570 396,598 476,535 556,552 636,470 716,505 796,430" fill="none" stroke="#137c8b" stroke-width="6"/>
    <g fill="#137c8b">
      <circle cx="76" cy="650" r="8"/><circle cx="156" cy="612" r="8"/><circle cx="236" cy="625" r="8"/><circle cx="316" cy="570" r="8"/><circle cx="396" cy="598" r="8"/>
      <circle cx="476" cy="535" r="8"/><circle cx="556" cy="552" r="8"/><circle cx="636" cy="470" r="8"/><circle cx="716" cy="505" r="8"/><circle cx="796" cy="430" r="8"/>
    </g>
    <line x1="54" y1="700" x2="835" y2="700" stroke="#d8e2ea" stroke-width="2"/>
    <line x1="54" y1="420" x2="54" y2="700" stroke="#d8e2ea" stroke-width="2"/>
    <rect x="890" y="355" width="436" height="370" rx="18" fill="#f7fafc" stroke="#d8e2ea" stroke-width="2"/>
    <text x="928" y="430" fill="#0f172a" font-size="26" font-weight="700">Dashboard Pages</text>
    <circle cx="938" cy="462" r="8" fill="#137c8b"/><text x="964" y="470" fill="#27313a" font-size="22">Overview trend analysis</text>
    <circle cx="938" cy="510" r="8" fill="#137c8b"/><text x="964" y="518" fill="#27313a" font-size="22">Store ranking and consistency</text>
    <circle cx="938" cy="558" r="8" fill="#137c8b"/><text x="964" y="566" fill="#27313a" font-size="22">Holiday vs regular weeks</text>
    <circle cx="938" cy="606" r="8" fill="#137c8b"/><text x="964" y="614" fill="#27313a" font-size="22">Economic signal comparison</text>
    <circle cx="938" cy="654" r="8" fill="#137c8b"/><text x="964" y="662" fill="#27313a" font-size="22">Database or CSV source</text>
  </g>
</svg>

