<svg xmlns="http://www.w3.org/2000/svg" width="1440" height="900" viewBox="0 0 1440 900">
  <rect width="1440" height="900" fill="#ffffff"/>
  <text x="54" y="88" fill="#0f172a" font-family="Segoe UI, Arial" font-size="42" font-weight="700">Project Architecture</text>
  <g font-family="Segoe UI, Arial">
    <g fill="#f7fafc" stroke="#137c8b" stroke-width="3">
      <rect x="80" y="190" width="250" height="130" rx="18"/>
      <rect x="390" y="190" width="250" height="130" rx="18"/>
      <rect x="700" y="190" width="250" height="130" rx="18"/>
      <rect x="1010" y="190" width="250" height="130" rx="18"/>
      <rect x="700" y="500" width="250" height="130" rx="18"/>
    </g>
    <g fill="#0f172a" font-size="26" font-weight="700">
      <text x="106" y="240">Raw CSV</text>
      <text x="416" y="240">ETL</text>
      <text x="726" y="240">SQL Database</text>
      <text x="1036" y="240">Dashboard</text>
      <text x="726" y="550">SQL Views</text>
    </g>
    <g fill="#4b5563" font-size="18">
      <text x="106" y="284">Real Walmart dataset</text>
      <text x="416" y="284">Validation and loading</text>
      <text x="726" y="284">PostgreSQL / MySQL</text>
      <text x="1036" y="284">Streamlit analytics</text>
      <text x="726" y="594">Reusable KPIs and queries</text>
    </g>
    <g stroke="#0f172a" stroke-width="4" fill="none" marker-end="url(#arrow)">
      <line x1="330" y1="255" x2="390" y2="255"/>
      <line x1="640" y1="255" x2="700" y2="255"/>
      <line x1="950" y1="255" x2="1010" y2="255"/>
      <line x1="825" y1="320" x2="825" y2="500"/>
      <path d="M950 565 C1030 565 1075 450 1080 320"/>
    </g>
  </g>
  <defs>
    <marker id="arrow" markerWidth="10" markerHeight="10" refX="7" refY="3" orient="auto">
      <path d="M0,0 L0,6 L8,3 z" fill="#0f172a"/>
    </marker>
  </defs>
</svg>

